<svg xmlns="http://www.w3.org/2000/svg" width="1200" height="630" viewBox="0 0 1200 630">
  <defs>
    <linearGradient id="bg" x1="0%" y1="0%" x2="100%" y2="100%">
      <stop offset="0%" style="stop-color:#0f2a0f" />
      <stop offset="100%" style="stop-color:#061506" />
    </linearGradient>
    <linearGradient id="accent" x1="0%" y1="0%" x2="100%" y2="100%">
      <stop offset="0%" style="stop-color:#3a8a3a" />
      <stop offset="100%" style="stop-color:#c99f1c" />
    </linearGradient>
  </defs>
  <rect width="1200" height="630" fill="url(#bg)" />
  <circle cx="100" cy="500" r="300" fill="#3a8a3a" opacity="0.06" />
  <circle cx="1100" cy="100" r="250" fill="#c99f1c" opacity="0.04" />
  <!-- Leaf icon -->
  <g transform="translate(80, 80)" opacity="0.9">
    <circle cx="30" cy="30" r="28" fill="#3a8a3a" opacity="0.3" />
    <path d="M30 0C30 0 30 14 38 22C46 30 50 36 50 44C50 50 46 54 42 54C34 54 30 42 30 34C30 42 24 54 16 54C12 54 10 50 10 44C10 36 14 30 22 22C30 14 30 0 30 0Z" fill="#3a8a3a" opacity="0.9" />
  </g>
  <text x="120" y="120" font-family="Georgia, serif" font-size="52" font-weight="bold" fill="#ffffff">D&apos;Organica Garden</text>
  <text x="120" y="180" font-family="Arial, sans-serif" font-size="28" fill="#5ca85c" letter-spacing="4">FARMER AND FARMING AT EVERY HOME</text>
  <text x="120" y="310" font-family="Georgia, serif" font-size="38" fill="#dcefdc">Urban Farming · Terrace Gardening</text>
  <text x="120" y="370" font-family="Georgia, serif" font-size="38" fill="#dcefdc">Microgreens Training · Hydroponics</text>
  <text x="120" y="430" font-family="Arial, sans-serif" font-size="22" fill="#8ec78e">Chennai, India — Since 2014</text>
  <line x1="120" y1="470" x2="400" y2="470" stroke="#c99f1c" stroke-width="2" opacity="0.5" />
  <text x="120" y="510" font-family="Arial, sans-serif" font-size="18" fill="#8ec78e" opacity="0.6">www.dorganicashop.com</text>
</svg>
